<svg xmlns="http://www.w3.org/2000/svg" viewBox="0 0 512 512"><defs><linearGradient id="linear-gradient" x1="254.92" x2="254.92" y1="492.89" y2="20.12" gradientUnits="userSpaceOnUse"><stop offset=".3" stop-color="#d13e32"/><stop offset=".39" stop-color="#b45f40"/><stop offset=".5" stop-color="#98804f"/><stop offset=".62" stop-color="#829a5a"/><stop offset=".74" stop-color="#72ac62"/><stop offset=".86" stop-color="#69b767"/><stop offset="1" stop-color="#66bb69"/></linearGradient><style>.st0{fill:#fdfcfc}.st4{fill:#66bb68}.st5{fill:#d13f33}</style></defs><circle id="Layer_2" cx="256" cy="256" r="245.35" style="fill:#231f20"/><circle id="Layer_3" cx="254.92" cy="256.5" r="232.38" style="fill:#231f20;stroke:url(#linear-gradient);stroke-miterlimit:10;stroke-width:8px"/><g id="Layer_1"><path d="m188.52 197.66-26.33 132.79-30.26 5.65 11.75-59.21c-.53.43-37.68 7.14-37.88 8.15l-11.4 57.94L62.44 360l-1.91.48 29.56-137.84c1.74-8.43-9.02-7.85-9.96-11.06l42.66-6.97-11.75 53.98c12.7-1.95 25.21-5.25 37.79-7.92l10.6-48.62 29.11-4.41ZM435.28 172.97c48.68-2 13.71 76.15 15.12 104.36-8.15 30.23-42.05 25.34-66.6 28.75-15.6.49-25.82-8.85-25.5-24.64 5.18-24.79 7.56-50.94 12.76-75.62 5.57-31.15 39.18-30.22 64.23-32.86Zm-8.27 27c-6.08.25-20.04 1.54-25.62 3.12-11.13 2.21-11.53 55.75-16.09 68.38-.55 12.21 22.76 1.83 30.15 3.15 4.39-1.13 6.26-4.35 7.17-8.51 4.35-19.94 5.77-41.67 9.97-61.78-.46-4.19-1.81-4.52-5.59-4.36Z" class="st0"/><path d="M329.14 264.71c12.55 20.73 26.73 47.35 49.91 57.84 2.84 1.16 4.06-.21 3.64 3.11-10.16-.09-25.15-1.73-34.95-3.59-23.06-7.57-31.07-34.78-43.28-53.46-2.55.44-6.83-.77-8.53 1.43l-7.06 37.35-27.66 5.21 22.31-119.19c23.77-1.01 77.19-25.57 77.82 14.91-2.59 21.61-4.08 54.61-32.21 56.39Zm-29.16-20.03c3.52-1.24 29.01-1.94 30.41-6.37 8.37-34.33 5.77-26.69-24.99-22.81zM272.11 195.92l-4.44 24.73-47.15 8.79-4.13 20.46 37.87-6.09-3.9 22.36-38.34 7.02c-1.61 7.28-3.51 14.59-4.34 22l47.89-8.71-4.82 28.26-75.72 13.53 22.84-119.3 74.25-13.05Z" class="st0"/><path d="M295.18 80.11h8.27v61.82c-.62.17-8.28-.53-8.27.65v41.14c0 .15-2.6.23-3.05.44v-42.23h-7.84V80.11h7.84V66.4c0-.89 3.05-.89 3.05 0z" class="st4"/><path d="M253.39 326.97v33.96h8.27v59.86c.05 1.19-7.7.47-8.27.65v15.46c0 .89-3.05.89-3.05 0v-15.46c-.63-.17-7.82.53-7.84-.65v-59.86c.63-.18 7.82.53 7.84-.65v-33.31z" class="st5"/><path d="M239.02 94.04v21.33h7.84v57.9h-7.84v19.16c0 .15-2.67.4-3.05.44v-18.94c.05-1.18-7.7-.48-8.27-.65v-57.9c.61-.18 8.29.54 8.27-.65V94.05h3.05ZM154.56 147.59c.63.18 7.82-.53 7.84.65v46.8c-3.45.5-7.72.09-9.96 3.32l-7.9 32.38h-1.3v-82.5c0-1.19 7.24-.47 7.84-.65v-13.28c0-.91 3.48-.91 3.48 0zM267.32 107.54h7.84v51.37h-7.84v29.17c0 .18-3.1.31-3.48.44v-29.61H256v-51.37h7.84V91.21c0-.91 3.48-.91 3.48 0zM380.08 119.29c.63.17 7.82-.53 7.84.65v50.5c-9.72 4.89-7.91 5.37-19.16 5.01v-55.51c-.01-1.19 7.24-.48 7.84-.65V94.04c.7-.04 3.48-.19 3.48.65zM210.72 109.71v23.51h7.84v51.37h-7.84v12.19c0 .15-2.58.56-3.05.44v-12.63h-7.84v-51.37h7.84v-23.51zM351.78 115.37v13.06h7.84v55.29c-3.37-2.63-7.41-4.74-11.66-5.54-1.26-.24-7.5-.48-7.5-1.21v-47.89c-.05-1.21 7.7-.46 8.27-.65v-13.06z" class="st4"/><path d="M225.09 360.93h8.27v42.88c.05 1.19-7.7.47-8.27.65v14.8h-3.05v-14.8c-.63-.18-7.82.53-7.84-.65v-42.88h7.84v-23.07c.62-.07 3.05-.12 3.05.65zM281.69 319.56v14.59c0 1.17 7.03.49 7.62.65.05 0 .65.61.65.65v40.49c.05 1.21-7.7.46-8.27.65v20.03h-3.05v-20.03h-7.84v-41.8h7.84V320.2c0-.77 2.43-.73 3.05-.65Z" class="st5"/><path d="M323.48 88.38v11.76h7.84v38.31h-7.84v40.92h-3.04v-40.92h-7.84v-38.31h7.84V88.38z" class="st4"/><path d="M168.93 380.08v18.94c0 .91-3.48.91-3.48 0v-18.94h-7.4v-40.05c5.71-.6 13.94-3.84 19.16-1.52v40.93c.05 1.2-7.7.46-8.27.65ZM309.99 360.49h7.84v36.14h-7.84v20.46h-3.05v-20.46h-7.84v-36.14h7.84v-26.56c.62-.07 3.05-.12 3.05.65v25.9ZM197.22 333.5v30.04c.63.17 7.81-.53 7.84.65v31.78c0 1.19-7.24.47-7.84.65v27.43h-3.05v-27.43c-.63-.17-7.81.53-7.84-.65v-31.78c0-1.19 7.24-.47 7.84-.65v-29.61c0-.15 2.67-.4 3.05-.44Z" class="st5"/><path d="M407.95 115.37v13.06c.61.17 8.29-.54 8.27.65v36.14c0 .97-17.43 2.17-19.16 2.83v-39.62h7.84v-13.06z" class="st4"/><path d="M148.9 341.77v37.66c.01 1.18-7.24.48-7.84.65v10.23c0 .84-2.78.69-3.48.65v-10.88c-.63-.18-7.82.53-7.84-.65v-34.39zM402.72 317.82v37.22c.05 1.19-7.7.48-8.27.65v13.93h-3.48v-13.93h-7.4v-23.07c7.44-1.09 7.93-8.44 4.79-13.93l14.37-.87Z" class="st5"/><path d="M126.26 150.64v16.11h7.84v35.7c-6.01.86-2.38-2.38-6.77-4.35-2.77-.5-9.26 2.04-12.39 2.18v-33.52c.61-.18 8.29.54 8.27-.65v-15.46h3.05Z" class="st4"/><path d="M338.29 350.04h7.84v25.69h-7.84v16.11h-3.05v-15.46c.05-1.18-7.7-.48-8.27-.65V350.7s.61-.65.65-.65c.62-.17 7.6.53 7.62-.65v-21.99c.56.28 3.05 1.01 3.05 1.52v21.12ZM366.15 331.32v6.53h8.27v25.69h-8.27v11.76h-3.05c-.71-13.21 3.28-11.8-7.84-11.76v-25.69c8.52-.47 7.98 2.51 7.84-6.97zM430.59 315.65v22.2h-8.27v14.8c-.62.07-3.05.12-3.05-.65v-14.15h-7.4v-21.33z" class="st5"/><path d="M182.42 159.78v13.5c.61.18 8.29-.54 8.27.65v16.11c-5.64 2.5-12.98 2.12-19.16 3.27v-20.03h7.84v-13.5z" class="st4"/><path d="M112.76 330.45v14.37c.63.18 7.82-.53 7.84.65v14.37c.01 1.18-7.24.48-7.84.65v14.8h-3.05v-14.8c-.61-.18-8.29.54-8.27-.65.17-3.06-.8-12.48 1.52-15.02h6.75v-14.37z" class="st5"/><path d="M97.96 175.46v13.93h7.84v12.63l-18.72 3.48v-16.11c.63-.18 7.82.53 7.84-.65v-13.28h3.05Z" class="st4"/></g><path id="Layer_4" d="M431.42 235.6h22.08v40.8h-22.08z" class="st0" transform="rotate(8.71 442.661 256.12)"/><g id="Layer_5"><path d="m386.208 278.535 34.518-5.344 1.777 11.473-34.52 5.344z" class="st0"/><path d="M293.29 263.44h15.12v5.43h-15.12z" style="fill:#fff" transform="rotate(-5.89 300.585 266.002)"/></g></svg>